# xmcd
#
# Track frame offsets: 
#        150
#        38418
#        107566
#        159727
#        190436
#        225152
#        246489
#
# Disc length: 3902 seconds
#
# Revision: 0
# Processed by: cddbd v1.5.2PL0 Copyright (c) Steve Scherf et al.
# Submitted via: ExactAudioCopy v0.99pb3
#
DISCID=4f0f3c07
DTITLE=Krzak - Jarocin  "pamiêci Skiby koncert 1983"
DYEAR=2006
DGENRE=Blues Rock
TTITLE0=Blues dla Skiby
TTITLE1=Come on
TTITLE2=Go Go owiec
TTITLE3=Swingulas
TTITLE4=Free night
TTITLE5=Solo dla Skiby
TTITLE6=Solidarnosc blues
EXTD=
EXTT0=
EXTT1=
EXTT2=
EXTT3=
EXTT4=
EXTT5=
EXTT6=
PLAYORDER=
